<svg width="24" height="10" viewBox="0 0 24 10" fill="none" xmlns="http://www.w3.org/2000/svg">
    <path d="M0.396 4.776C0.396 3.944 0.576 3.204 0.936 2.556C1.296 1.9 1.796 1.392 2.436 1.032C3.084 0.664 3.816 0.48 4.632 0.48C5.632 0.48 6.488 0.743999 7.2 1.272C7.912 1.8 8.388 2.52 8.628 3.432H6.372C6.204 3.08 5.964 2.812 5.652 2.628C5.348 2.444 5 2.352 4.608 2.352C3.976 2.352 3.464 2.572 3.072 3.012C2.68 3.452 2.484 4.04 2.484 4.776C2.484 5.512 2.68 6.1 3.072 6.54C3.464 6.98 3.976 7.2 4.608 7.2C5 7.2 5.348 7.108 5.652 6.924C5.964 6.74 6.204 6.472 6.372 6.12H8.628C8.388 7.032 7.912 7.752 7.2 8.28C6.488 8.8 5.632 9.06 4.632 9.06C3.816 9.06 3.084 8.88 2.436 8.52C1.796 8.152 1.296 7.644 0.936 6.996C0.576 6.348 0.396 5.608 0.396 4.776ZM15.9686 5.724H13.8806V7.86H11.9366V5.724H9.84863V3.888H11.9366V1.74H13.8806V3.888H15.9686V5.724ZM20.4678 9.084C19.8518 9.084 19.2998 8.984 18.8118 8.784C18.3238 8.584 17.9318 8.288 17.6358 7.896C17.3478 7.504 17.1958 7.032 17.1798 6.48H19.3638C19.3958 6.792 19.5038 7.032 19.6878 7.2C19.8718 7.36 20.1118 7.44 20.4078 7.44C20.7118 7.44 20.9518 7.372 21.1278 7.236C21.3038 7.092 21.3918 6.896 21.3918 6.648C21.3918 6.44 21.3198 6.268 21.1758 6.132C21.0398 5.996 20.8678 5.884 20.6598 5.796C20.4598 5.708 20.1718 5.608 19.7958 5.496C19.2518 5.328 18.8078 5.16 18.4638 4.992C18.1198 4.824 17.8238 4.576 17.5758 4.248C17.3278 3.92 17.2038 3.492 17.2038 2.964C17.2038 2.18 17.4878 1.568 18.0558 1.128C18.6238 0.68 19.3638 0.456 20.2758 0.456C21.2038 0.456 21.9518 0.68 22.5198 1.128C23.0878 1.568 23.3918 2.184 23.4318 2.976H21.2118C21.1958 2.704 21.0958 2.492 20.9118 2.34C20.7278 2.18 20.4918 2.1 20.2038 2.1C19.9558 2.1 19.7558 2.168 19.6038 2.304C19.4518 2.432 19.3758 2.62 19.3758 2.868C19.3758 3.14 19.5038 3.352 19.7598 3.504C20.0158 3.656 20.4158 3.82 20.9598 3.996C21.5038 4.18 21.9438 4.356 22.2798 4.524C22.6238 4.692 22.9198 4.936 23.1678 5.256C23.4158 5.576 23.5398 5.988 23.5398 6.492C23.5398 6.972 23.4158 7.408 23.1678 7.8C22.9278 8.192 22.5758 8.504 22.1118 8.736C21.6478 8.968 21.0998 9.084 20.4678 9.084Z" fill="#059669"/>
</svg>
